<?xml version="1.0" encoding="utf-8"?>
<!-- Generator: Adobe Illustrator 27.1.0, SVG Export Plug-In . SVG Version: 6.00 Build 0)  -->
<svg version="1.1" id="Layer_1" xmlns="http://www.w3.org/2000/svg" xmlns:xlink="http://www.w3.org/1999/xlink" x="0px" y="0px"
	 viewBox="0 0 1537.7 150" style="enable-background:new 0 0 1537.7 150;" xml:space="preserve">
<style type="text/css">
	.st0{fill:#1FC91F;}
</style>
<g>
	<polygon class="st0" points="338,1.5 317.7,91.4 294.4,1.5 271.7,1.5 247.8,91.4 227.4,1.5 205.3,1.5 235.2,114.5 259.6,114.5 
		282.7,30.7 305.1,114.5 329.6,114.5 360.3,1.5 	"/>
	<path class="st0" d="M416.7,37.6c-6-3.4-13-5.2-20.8-5.2c-8.4,0-15.7,1.8-21.9,5.4c-6.2,3.6-11,8.6-14.5,15.1
		c-3.5,6.5-5.2,13.8-5.2,22.1c0,8.2,1.8,15.4,5.3,21.6c3.6,6.2,8.4,11.1,14.7,14.5c6.2,3.4,13.4,5.2,21.5,5.2
		c6.5,0,12.2-1.2,17.4-3.6c5.1-2.4,9.4-5.6,12.9-9.8c3.5-4.1,6-8.7,7.5-13.8h-21c-1.4,3-3.5,5.5-6.4,7.3c-2.9,1.9-6.4,2.8-10.6,2.8
		c-5.6,0-10.4-1.8-14.3-5.3c-3.9-3.6-6.1-8.4-6.5-14.7h60.9c0.1-1.4,0.2-2.7,0.2-4c0.1-1.3,0.1-2.5,0.1-3.7c0-7.3-1.7-14-5.1-19.9
		C427.4,45.8,422.7,41.1,416.7,37.6z M375,66.5c1.1-5.8,3.6-10.1,7.4-13c3.9-2.9,8.3-4.3,13.4-4.3c5.3,0,9.7,1.6,13.2,4.7
		c3.6,3.1,5.5,7.3,5.8,12.6H375z"/>
	<path class="st0" d="M549,56.2c5.5-1.5,10.1-4.4,14-8.6c3.8-4.2,5.7-9.9,5.7-17c0-8.5-3.1-15.5-9.3-20.9
		c-6.2-5.4-15.2-8.2-26.9-8.2h-45.4v113h47c11.8,0,21-2.9,27.4-8.7s9.7-13.2,9.7-22.1c0-6.8-2.1-12.7-6.3-17.8
		C560.8,60.7,555.4,57.5,549,56.2z M507.8,18.1h21.3c6.1,0,10.7,1.4,13.8,4.1c3.1,2.7,4.6,6.5,4.6,11.2c0,5-1.6,8.8-4.7,11.5
		c-3.1,2.7-7.6,4-13.4,4h-21.6V18.1z M545.2,93.4c-3.4,2.9-8.2,4.3-14.3,4.3h-23.1V64.4h22.8c6,0,10.8,1.5,14.4,4.5
		c3.6,3,5.3,7.2,5.3,12.4C550.3,86.6,548.6,90.6,545.2,93.4z"/>
	<path class="st0" d="M638.4,75.7c0,7.3-1.9,13-5.6,17.1c-3.7,4.1-8.4,6.1-14.1,6.1c-6,0-10.4-1.8-13.2-5.5
		c-2.8-3.7-4.2-8.9-4.2-15.8V34.4h-20.5v45.2c0,12.1,2.7,21.2,8.2,27.4c5.4,6.2,13.2,9.4,23.2,9.4c6.2,0,11.7-1.4,16.4-4.2
		c4.7-2.8,8.3-6.6,10.7-11.3l1.6,13.6h18.2V34.4h-20.7V75.7z"/>
	<polygon class="st0" points="711.1,90.7 688.6,34.4 666.2,34.4 697.4,109.2 702.2,109.2 683.6,150 705.6,150 756.5,34.4 
		734.5,34.4 	"/>
	<path class="st0" d="M834.4,1.5l-41.3,113h21.6l9.2-26.2H868l9,26.2h22l-41.3-113H834.4z M829.6,72.2l16.3-47l16.5,47H829.6z"/>
	<path class="st0" d="M953.6,32.5c-6.4,0-11.9,1.4-16.5,4.2c-4.7,2.8-8.3,6.6-10.7,11.3l-1.6-13.6h-18.2v80.1h20.7V73.2
		c0-7.3,1.9-13,5.6-17.1c3.7-4.1,8.5-6.1,14.3-6.1c5.9,0,10.3,1.8,13.1,5.5c2.8,3.7,4.2,8.9,4.2,15.8v43.3h20.7V69.3
		c0-12.1-2.7-21.2-8.2-27.4C971.2,35.6,963.5,32.5,953.6,32.5z"/>
	<polygon class="st0" points="1031.3,90.7 1008.8,34.4 986.4,34.4 1017.5,109.2 1022.4,109.2 1003.8,150 1025.8,150 1076.6,34.4 
		1054.7,34.4 	"/>
	<polygon class="st0" points="1192.9,48.5 1142.2,48.5 1142.2,1.5 1121.5,1.5 1121.5,114.5 1142.2,114.5 1142.2,65.2 1192.9,65.2 
		1192.9,114.5 1213.5,114.5 1213.5,1.5 1192.9,1.5 	"/>
	<path class="st0" d="M1286.6,37.8c-6.2-3.6-13.1-5.3-20.7-5.3c-7.7,0-14.7,1.8-20.9,5.3c-6.2,3.6-11.1,8.5-14.8,14.8
		c-3.7,6.3-5.5,13.6-5.5,21.9c0,8.3,1.8,15.6,5.4,21.9c3.6,6.3,8.5,11.2,14.7,14.8c6.2,3.6,13.2,5.3,20.9,5.3
		c7.6,0,14.6-1.8,20.8-5.3c6.2-3.6,11.2-8.5,14.8-14.8c3.6-6.3,5.4-13.6,5.4-21.9c0-8.3-1.8-15.6-5.4-21.9
		C1297.7,46.3,1292.8,41.3,1286.6,37.8z M1279.7,92.4c-4,4-8.7,6.1-14,6.1c-5.4,0-10-2-14-6.1c-3.9-4-5.9-10-5.9-18c0-8,2-14,5.9-18
		c3.9-4,8.6-6.1,14.1-6.1c5.3,0,9.9,2,13.9,6.1c4,4,6,10,6,18C1285.7,82.4,1283.7,88.4,1279.7,92.4z"/>
	<path class="st0" d="M1413.7,32.5c-5.8,0-11.2,1.3-16.1,3.9c-4.9,2.6-8.8,6.1-11.7,10.5c-5.2-9.6-13.9-14.4-26.3-14.4
		c-5.6,0-10.5,1.2-14.8,3.5c-4.3,2.3-7.7,5.4-10.3,9.3l-1.8-10.8h-18.2v80.1h20.7V73.2c0-7.3,1.7-13,5.1-17.1
		c3.4-4.1,7.8-6.1,13.3-6.1c5.6,0,9.7,1.8,12.4,5.5c2.7,3.7,4,8.9,4,15.8v43.3h20.7V73.2c0-7.3,1.7-13,5.1-17.1
		c3.4-4.1,7.9-6.1,13.5-6.1c5.5,0,9.6,1.8,12.2,5.5c2.6,3.7,4,8.9,4,15.8v43.3h20.7V69.3c0-12.1-2.8-21.2-8.4-27.4
		C1432.2,35.6,1424.2,32.5,1413.7,32.5z"/>
	<path class="st0" d="M1532.6,51.8c-3.4-6-8.1-10.7-14.1-14.1c-6-3.4-13-5.2-20.8-5.2c-8.4,0-15.7,1.8-21.9,5.4
		c-6.2,3.6-11,8.6-14.5,15.1c-3.5,6.5-5.2,13.8-5.2,22.1c0,8.2,1.8,15.4,5.3,21.6c3.6,6.2,8.4,11.1,14.7,14.5
		c6.2,3.4,13.4,5.2,21.5,5.2c6.5,0,12.2-1.2,17.4-3.6c5.1-2.4,9.4-5.6,12.9-9.8c3.5-4.1,6-8.7,7.5-13.8h-21c-1.4,3-3.5,5.5-6.4,7.3
		c-2.9,1.9-6.4,2.8-10.6,2.8c-5.6,0-10.4-1.8-14.3-5.3c-3.9-3.6-6.1-8.4-6.5-14.7h60.9c0.1-1.4,0.2-2.7,0.2-4
		c0.1-1.3,0.1-2.5,0.1-3.7C1537.7,64.4,1536,57.7,1532.6,51.8z M1476.8,66.5c1.1-5.8,3.6-10.1,7.4-13c3.9-2.9,8.3-4.3,13.4-4.3
		c5.3,0,9.7,1.6,13.2,4.7c3.6,3.1,5.5,7.3,5.8,12.6H1476.8z"/>
	<path class="st0" d="M78.6,0H50.2c-1.5,0-2.9,0.6-3.9,1.7l-45,55.6C0.5,58.3,0,59.6,0,60.8v50.2c0,1.9,1,3.5,2.9,3.5h23.8
		c1.9,0,3.5-1.5,3.5-3.5l0.1-45c0-1.2,0.4-2.4,1.2-3.3l48.5-60C80.9,1.7,80.1,0,78.6,0z"/>
	<path class="st0" d="M155.3,84.3H49.2c-2.9,0-5.2,2.3-5.2,5.2v19.9c0,2.9,2.3,5.2,5.2,5.2h106.2c2.9,0,5.2-2.3,5.2-5.2V89.4
		C160.5,86.6,158.2,84.3,155.3,84.3z"/>
	<path class="st0" d="M45.8,71.3h34.6c1.1,0,2.2-0.5,2.9-1.4l16.8-22.5c1.1-1.4,3.2-1.4,4.3,0l16.8,22.5c0.7,0.9,1.7,1.4,2.9,1.4
		h34.6c1.5,0,2.3-1.7,1.4-2.9L106.4,2c-2.1-2.7-6.2-2.7-8.4,0L44.4,68.4C43.4,69.6,44.3,71.3,45.8,71.3z"/>
</g>
</svg>
