<?xml version="1.0" encoding="UTF-8"?>
<svg xmlns="http://www.w3.org/2000/svg" id="Layer_2" viewBox="0 0 750.89 327.92">
  <defs>
    <style>.cls-1{fill:#352554;stroke-width:0px;}</style>
  </defs>
  <g id="Layer_2-2">
    <path class="cls-1" d="M131.17,229.55h-65.58c-18.38,0-33.91-6.33-46.57-19.01C6.33,197.87,0,182.34,0,163.96s6.33-33.42,19.01-46.1c12.99-12.99,28.51-19.48,46.57-19.48,4.43,0,8.24,1.58,11.41,4.75,3.16,3.18,4.75,6.97,4.75,11.41v16.63h-16.16c-9.19,0-16.95,3.17-23.29,9.5-6.34,6.34-9.51,14.1-9.51,23.29s3.16,16.95,9.51,23.29c6.33,6.35,14.09,9.51,23.29,9.51h65.58v32.79ZM98.38,114.54c0-8.87-3.17-16.47-9.5-22.81-6.34-6.33-14.1-9.5-23.29-9.5h-32.79v-32.8h32.79c18.06,0,33.42,6.35,46.1,19.01,12.99,12.99,19.49,28.36,19.49,46.1v65.58h-32.79v-65.58Z"></path>
    <path class="cls-1" d="M154.93,98.38v131.16h32.79V98.38h-32.79Z"></path>
    <path class="cls-1" d="M384.48,114.54v115.01h-32.79v-115.01c0-8.86-3.17-16.47-9.5-22.81-6.34-6.33-14.1-9.5-23.29-9.5-10.14,0-18.22,3.49-24.24,10.45,0,0-8.24,7.63-8.83,28.42-.04,1.58.04,3.15.13,4.72.1,1.76.15,3.54.15,5.35v98.38h-32.8v-98.38c0-6.65-1.27-12.99-3.8-19-2.54-6.02-6.02-11.25-10.45-15.69-4.44-4.43-9.67-7.91-15.69-10.46-6.02-2.53-12.35-3.8-19.01-3.8h-49.42v-32.79h49.42c22.81,0,42.14,7.92,57.98,23.76,1.28,1.28,2.51,2.58,3.68,3.91,2.53-4.26,5.98-8.77,10.58-12.47,12.03-10.13,26.14-15.21,42.29-15.21,18.06,0,33.43,6.34,46.1,19.01,12.99,12.99,19.48,28.35,19.48,46.1Z"></path>
    <path class="cls-1" d="M441.03,32.79h-32.79V0h32.79v32.79ZM441.03,229.55h-32.79V49.42h32.79v180.12Z"></path>
    <path class="cls-1" d="M488.56,205.78c-15.85-15.84-23.76-35.33-23.76-58.46v-16.16c0-22.81,7.92-42.13,23.76-57.98,15.84-15.84,35.17-23.76,57.98-23.76h49.43v32.8h-49.43c-6.65,0-12.99,1.27-19.01,3.8-6.02,2.54-11.25,6.03-15.68,10.46-4.44,4.44-7.92,9.67-10.46,15.69-2.54,6.02-3.8,12.35-3.8,19.01v16.16c0,6.65,1.26,13,3.8,19.01,2.53,6.02,6.01,11.25,10.46,15.68,4.43,4.44,9.66,8.01,15.68,10.69,6.01,2.69,12.35,4.04,19.01,4.04v32.79c-22.81,0-42.14-7.92-57.98-23.76ZM595.96,262.34c0,17.74-6.5,33.1-19.49,46.1-12.99,12.99-28.36,19.48-46.1,19.48s-33.59-6.5-46.57-19.48c-12.68-12.67-19.01-28.04-19.01-46.1h32.79c0,9.18,3.16,16.95,9.51,23.29,6.33,6.33,14.09,9.5,23.29,9.5s16.94-3.17,23.29-9.5c6.33-6.34,9.5-14.1,9.5-23.29V98.38h32.79v163.96Z"></path>
    <path class="cls-1" d="M731.41,210.53c-12.67,12.68-28.04,19.01-46.1,19.01s-33.91-6.33-46.57-19.01c-12.68-12.67-19.01-28.19-19.01-46.57v-49.42c0-18.06,6.33-33.42,19.01-46.1,12.67-12.67,28.2-19.01,46.57-19.01s33.42,6.35,46.1,19.01c12.99,12.99,19.49,28.36,19.49,46.1v49.42c0,18.06-6.5,33.59-19.49,46.57ZM708.6,91.72c-6.34-6.33-14.1-9.5-23.29-9.5s-16.95,3.01-23.29,9.03c-6.34,6.02-9.51,13.78-9.51,23.29v49.42c0,9.2,3.16,16.95,9.51,23.29,6.33,6.35,14.09,9.51,23.29,9.51s16.94-3.16,23.29-9.51c6.33-6.33,9.5-14.09,9.5-23.29v-49.42c0-8.87-3.17-16.47-9.5-22.81Z"></path>
    <path class="cls-1" d="M171.7,261.88c8.65,0,15.1,6.33,15.1,16.26s-6.45,16.38-15.1,16.38c-6.33,0-10.75-3.48-12.6-7.43v21.96h-4.01v-46.7h4.01v6.97c1.86-4.01,6.27-7.43,12.6-7.43ZM170.88,265.43c-6.45,0-11.79,4.88-11.79,12.78s5.34,12.78,11.79,12.78,11.79-4.82,11.79-12.84-5.11-12.72-11.79-12.72Z"></path>
    <path class="cls-1" d="M198.36,294.06h-4.06v-31.71h4.06v5.63c1.74-3.89,5.4-6.22,10.86-6.22v4.24h-1.1c-5.28,0-9.76,2.38-9.76,10.34v17.72Z"></path>
    <path class="cls-1" d="M229.2,294.52c-8.94,0-15.74-6.27-15.74-16.32s6.97-16.32,15.86-16.32,15.86,6.21,15.86,16.32-7.03,16.32-15.97,16.32ZM229.2,290.98c5.98,0,11.79-4.07,11.79-12.78s-5.69-12.78-11.73-12.78-11.67,4.07-11.67,12.78,5.58,12.78,11.62,12.78Z"></path>
    <path class="cls-1" d="M269.22,261.88c8.65,0,15.1,6.33,15.1,16.26s-6.45,16.38-15.1,16.38c-6.33,0-10.75-3.48-12.6-7.43v21.96h-4.01v-46.7h4.01v6.97c1.86-4.01,6.27-7.43,12.6-7.43ZM268.4,265.43c-6.45,0-11.79,4.88-11.79,12.78s5.34,12.78,11.79,12.78,11.79-4.82,11.79-12.84-5.11-12.72-11.79-12.72Z"></path>
    <path class="cls-1" d="M305.52,294.52c-9,0-15.57-6.27-15.57-16.32s6.45-16.32,15.57-16.32,14.99,6.62,14.99,14.7c0,1.28,0,2.09-.12,3.19h-26.31c.35,7.43,5.52,11.33,11.44,11.33,5.4,0,9.06-2.84,10.22-7.08h4.3c-1.45,5.98-6.56,10.51-14.52,10.51ZM294.08,276.46h22.3c.17-7.38-5.17-11.09-11.04-11.09s-10.8,3.72-11.27,11.09Z"></path>
    <path class="cls-1" d="M332,294.06h-4.06v-31.71h4.06v5.63c1.74-3.89,5.4-6.22,10.86-6.22v4.24h-1.1c-5.28,0-9.76,2.38-9.76,10.34v17.72Z"></path>
    <path class="cls-1" d="M350.12,265.78h-4.41v-3.43h4.41v-7.96h4.12v7.96h8.71v3.43h-8.71v19.69c0,3.89,1.34,5.11,4.99,5.11h3.72v3.48h-4.35c-5.52,0-8.48-2.26-8.48-8.6v-19.69Z"></path>
    <path class="cls-1" d="M368.71,253.34c0-1.74,1.34-2.96,2.96-2.96s2.96,1.22,2.96,2.96-1.34,3.02-2.96,3.02-2.96-1.28-2.96-3.02ZM369.64,262.35h4.06v31.71h-4.06v-31.71Z"></path>
    <path class="cls-1" d="M396.65,294.52c-9,0-15.57-6.27-15.57-16.32s6.45-16.32,15.57-16.32,14.99,6.62,14.99,14.7c0,1.28,0,2.09-.12,3.19h-26.31c.35,7.43,5.52,11.33,11.44,11.33,5.4,0,9.06-2.84,10.22-7.08h4.3c-1.45,5.98-6.56,10.51-14.52,10.51ZM385.21,276.46h22.3c.17-7.38-5.17-11.09-11.04-11.09s-10.8,3.72-11.27,11.09Z"></path>
    <path class="cls-1" d="M429.99,294.52c-7.2,0-12.26-3.6-12.78-9.41h4.18c.35,3.48,3.37,5.98,8.54,5.98,4.53,0,7.08-2.44,7.08-5.46,0-7.84-19.05-3.25-19.05-15.16,0-4.7,4.47-8.6,11.15-8.6s11.27,3.6,11.62,9.7h-4.06c-.23-3.54-2.85-6.21-7.67-6.21-4.24,0-6.91,2.26-6.91,5.05,0,8.6,18.76,4.01,18.93,15.22,0,5.11-4.47,8.89-11.04,8.89Z"></path>
  </g>
</svg>
